<?xml version="1.0" encoding="utf-8"?>
<!-- Generator: Adobe Illustrator 16.0.0, SVG Export Plug-In . SVG Version: 6.00 Build 0)  -->
<!DOCTYPE svg PUBLIC "-//W3C//DTD SVG 1.1//EN" "http://www.w3.org/Graphics/SVG/1.1/DTD/svg11.dtd">
<svg version="1.1" id="Layer_1" xmlns="http://www.w3.org/2000/svg" xmlns:xlink="http://www.w3.org/1999/xlink" x="0px" y="0px"
	 width="169.492px" height="158.992px" viewBox="0 0 169.492 158.992" enable-background="new 0 0 169.492 158.992"
	 xml:space="preserve">
<rect x="39.889" y="-296.079" fill-rule="evenodd" clip-rule="evenodd" fill="none" width="324" height="130"/>
<text transform="matrix(1 0 0 1 94.8892 -174.2402)" fill="#483D8B" font-family="'Campton-BoldDEMO'" font-size="63.7994">Crank</text>
<text transform="matrix(1 0 0 1 363.4492 -174.208)" font-family="'Campton-BoldDEMO'" font-size="43.8301">Creations</text>
<g>
	<g>
		<path fill="#483D8B" d="M320.557-190.177c-0.799-0.613-1.387-1.046-1.955-1.505c-3.319-2.68-5.188-6.163-5.088-10.419
			c0.172-7.345,7.083-12.692,13.382-11.938c0.783,0.095,1.588,0.014,2.621,0.014c1.964-5.262,3.909-10.45,5.82-15.649
			c0.107-0.292-0.063-0.687-0.104-1.02c-1.25-0.482-1.693,0.349-2.176,1.091c-0.677,1.042-1.348,2.088-1.937,3.001
			c-1.983-0.041-2.231-0.16-2.619-1.404c-0.242-0.777-0.294-1.615-0.564-2.379c-0.256-0.726-0.685-1.392-1.025-2.059
			c-1.695,0.144-3.19-0.075-4.809,0.827c-0.117,1.04-0.244,2.197-0.378,3.352c-0.108,0.93-0.398,1.769-1.385,2.092
			c-1.042,0.341-1.68-0.295-2.225-1.052c-0.476-0.662-0.902-1.363-1.403-2.004c-0.35-0.448-0.79-0.825-1.299-1.346
			c-1.484,0.69-2.867,1.334-4.424,2.059c0.196,0.937,0.347,1.705,0.52,2.469c0.179,0.793,0.504,1.576,0.544,2.374
			c0.079,1.61-1.263,2.43-2.705,1.698c-0.523-0.265-0.967-0.685-1.465-1.005c-0.731-0.47-1.479-0.913-2.228-1.374
			c-1.599,1.032-2.799,2.156-3.52,3.676c0.568,1.995,2.6,3.032,2.842,5.021c-0.916,1.559-1.261,1.762-2.815,1.523
			c-1.15-0.176-2.29-0.417-3.459-0.635c-1.085,1.571-1.799,3.045-1.905,4.927c1.065,0.66,2.069,1.265,3.055,1.898
			c0.987,0.636,1.786,1.377,1.253,2.761c-1.401,1.656-3.831,0.923-5.481,2.248c-0.222,1.595-0.376,3.179,0.341,4.888
			c1.228,0.2,2.461,0.391,3.691,0.606c1.226,0.215,2.06,0.807,2.019,2.263c-0.849,1.898-3.333,2.122-4.275,3.9
			c0.296,1.916,0.789,2.929,2.299,4.562c1.044-0.27,2.237-0.596,3.438-0.884c1.737-0.418,2.234-0.103,2.896,1.867
			c-0.861,1.427-1.765,2.925-2.6,4.311c1.244,2.123,2.143,2.935,3.973,3.579c1.027-0.752,2.111-1.644,3.291-2.384
			c1.452-0.909,2.939-0.063,2.892,1.65c-0.023,0.875-0.341,1.74-0.505,2.613c-0.134,0.715-0.401,1.472,0.463,2.029
			c1.064,0.137,1.294-0.679,1.58-1.447c1.265-3.404,2.543-6.803,3.802-10.21C319.464-187.039,319.964-188.502,320.557-190.177z"/>
		<path fill-rule="evenodd" clip-rule="evenodd" fill="#260D0F" d="M335.189-221.528c0.593-1.675,1.092-3.138,1.628-4.588
			c1.259-3.406,2.537-6.805,3.802-10.209c0.286-0.769,0.516-1.583,1.581-1.447c0.864,0.558,0.596,1.313,0.462,2.028
			c-0.164,0.874-0.482,1.74-0.505,2.614c-0.047,1.713,1.44,2.559,2.891,1.649c1.179-0.739,2.264-1.631,3.291-2.384
			c1.83,0.646,2.729,1.456,3.973,3.58c-0.835,1.386-1.74,2.884-2.6,4.311c0.662,1.97,1.159,2.285,2.896,1.868
			c1.202-0.289,2.394-0.615,3.439-0.885c1.511,1.634,2.002,2.647,2.299,4.562c-0.943,1.779-3.426,2.002-4.275,3.899
			c-0.042,1.456,0.792,2.049,2.018,2.264c1.229,0.216,2.464,0.406,3.691,0.605c0.717,1.709,0.562,3.294,0.341,4.889
			c-1.651,1.326-4.081,0.591-5.482,2.247c-0.533,1.384,0.266,2.126,1.253,2.762c0.985,0.634,1.99,1.238,3.055,1.898
			c-0.105,1.882-0.82,3.355-1.905,4.927c-1.17-0.218-2.309-0.46-3.46-0.636c-1.553-0.237-1.898-0.034-2.815,1.524
			c0.243,1.988,2.275,3.025,2.843,5.021c-0.721,1.52-1.921,2.644-3.52,3.675c-0.75-0.46-1.498-0.903-2.228-1.372
			c-0.499-0.321-0.941-0.74-1.464-1.006c-1.442-0.731-2.784,0.088-2.705,1.698c0.04,0.799,0.365,1.58,0.543,2.374
			c0.173,0.764,0.324,1.532,0.52,2.47c-1.557,0.724-2.94,1.367-4.424,2.059c-0.509-0.521-0.949-0.898-1.299-1.346
			c-0.501-0.643-0.927-1.343-1.403-2.005c-0.544-0.757-1.182-1.393-2.225-1.052c-0.987,0.323-1.277,1.161-1.385,2.092
			c-0.134,1.156-0.261,2.312-0.378,3.352c-1.619,0.902-3.114,0.684-4.809,0.827c-0.34-0.667-0.769-1.332-1.025-2.059
			c-0.27-0.764-0.322-1.602-0.564-2.378c-0.388-1.244-0.636-1.363-2.619-1.405c-0.588,0.912-1.259,1.959-1.937,3.001
			c-0.483,0.743-0.925,1.573-2.176,1.092c-0.04-0.334-0.21-0.729-0.103-1.02c1.911-5.199,3.856-10.389,5.821-15.649
			c1.032,0,1.837-0.081,2.62,0.013c6.3,0.756,13.21-4.592,13.382-11.938c0.099-4.256-1.769-7.74-5.088-10.42
			C336.577-220.482,335.988-220.916,335.189-221.528z"/>
		
			<path fill-rule="evenodd" clip-rule="evenodd" fill="#260D0F" stroke="#000000" stroke-width="2" stroke-linecap="round" stroke-linejoin="round" stroke-miterlimit="10" d="
			M341.947-234.245c-0.446,1.41-0.891,2.82-1.336,4.23"/>
	</g>
</g>
<g>
	<g>
		<path fill="#483D8B" d="M66.433,104.639c-1.516-1.163-2.632-1.982-3.709-2.854c-6.298-5.085-9.844-11.697-9.656-19.773
			c0.326-13.936,13.44-24.084,25.394-22.653c1.486,0.182,3.013,0.026,4.973,0.026c3.727-9.985,7.418-19.829,11.045-29.695
			c0.203-0.556-0.12-1.305-0.196-1.935c-2.373-0.916-3.212,0.659-4.129,2.068c-1.285,1.979-2.558,3.962-3.675,5.696
			c-3.763-0.078-4.234-0.304-4.97-2.665c-0.458-1.475-0.558-3.064-1.07-4.514c-0.486-1.379-1.299-2.643-1.945-3.909
			c-3.216,0.272-6.053-0.143-9.125,1.57c-0.222,1.974-0.463,4.169-0.718,6.359c-0.205,1.765-0.755,3.358-2.629,3.97
			c-1.979,0.648-3.188-0.56-4.222-1.994c-0.903-1.256-1.711-2.587-2.662-3.803c-0.664-0.853-1.499-1.567-2.465-2.554
			c-2.816,1.309-5.441,2.532-8.395,3.907c0.372,1.775,0.659,3.235,0.986,4.685c0.34,1.505,0.957,2.991,1.032,4.503
			c0.149,3.058-2.397,4.61-5.132,3.225c-0.993-0.504-1.834-1.301-2.78-1.909c-1.387-0.889-2.806-1.73-4.227-2.605
			c-3.035,1.957-5.312,4.092-6.68,6.976c1.078,3.784,4.934,5.752,5.394,9.525c-1.738,2.958-2.393,3.343-5.342,2.891
			c-2.182-0.333-4.346-0.789-6.564-1.204c-2.06,2.983-3.415,5.778-3.616,9.351c2.021,1.253,3.927,2.398,5.797,3.603
			c1.874,1.205,3.389,2.613,2.377,5.237c-2.659,3.143-7.27,1.753-10.402,4.266c-0.421,3.028-0.714,6.034,0.647,9.277
			c2.329,0.378,4.671,0.741,7.004,1.149c2.326,0.407,3.909,1.53,3.831,4.295c-1.61,3.603-6.324,4.025-8.113,7.401
			c0.562,3.637,1.498,5.557,4.363,8.658c1.982-0.511,4.245-1.13,6.525-1.679c3.296-0.793,4.239-0.192,5.496,3.543
			c-1.634,2.71-3.35,5.553-4.934,8.181c2.36,4.028,4.066,5.57,7.539,6.793c1.95-1.427,4.007-3.12,6.245-4.525
			c2.755-1.724,5.577-0.118,5.487,3.132c-0.044,1.661-0.647,3.303-0.959,4.959c-0.255,1.356-0.762,2.795,0.878,3.852
			c2.019,0.259,2.456-1.286,2.999-2.747c2.4-6.46,4.826-12.909,7.215-19.373C64.36,110.595,65.308,107.819,66.433,104.639z"/>
		<path fill-rule="evenodd" clip-rule="evenodd" fill="#260D0F" d="M94.201,45.145c1.126-3.176,2.073-5.952,3.09-8.706
			c2.389-6.464,4.814-12.913,7.214-19.373c0.543-1.458,0.979-3.004,3-2.744c1.64,1.058,1.131,2.492,0.877,3.849
			c-0.311,1.659-0.915,3.303-0.958,4.961c-0.09,3.251,2.733,4.857,5.486,3.13c2.238-1.404,4.296-3.095,6.245-4.525
			c3.472,1.228,5.179,2.766,7.539,6.794c-1.584,2.632-3.302,5.475-4.933,8.18c1.256,3.74,2.199,4.337,5.495,3.547
			c2.28-0.548,4.543-1.167,6.526-1.679c2.867,3.099,3.8,5.022,4.362,8.658c-1.79,3.376-6.502,3.799-8.112,7.397
			c-0.08,2.766,1.504,3.889,3.83,4.296c2.333,0.411,4.675,0.771,7.005,1.149c1.36,3.242,1.067,6.252,0.647,9.276
			c-3.133,2.517-7.745,1.123-10.403,4.266c-1.012,2.625,0.505,4.033,2.377,5.241c1.87,1.201,3.776,2.35,5.797,3.603
			c-0.199,3.569-1.556,6.367-3.616,9.348c-2.22-0.412-4.382-0.871-6.565-1.205c-2.947-0.452-3.602-0.066-5.342,2.892
			c0.46,3.772,4.318,5.741,5.395,9.528c-1.369,2.884-3.646,5.015-6.679,6.972c-1.422-0.871-2.842-1.712-4.228-2.602
			c-0.946-0.611-1.787-1.404-2.779-1.909c-2.736-1.39-5.284,0.167-5.133,3.221c0.075,1.517,0.692,2.999,1.031,4.508
			c0.328,1.449,0.615,2.905,0.987,4.685c-2.954,1.375-5.579,2.595-8.395,3.906c-0.966-0.989-1.801-1.705-2.466-2.554
			c-0.951-1.22-1.758-2.546-2.662-3.803c-1.033-1.438-2.243-2.643-4.221-1.998c-1.874,0.615-2.424,2.206-2.629,3.97
			c-0.254,2.194-0.496,4.389-0.717,6.36c-3.072,1.712-5.91,1.297-9.125,1.571c-0.646-1.268-1.458-2.527-1.945-3.906
			c-0.511-1.449-0.611-3.039-1.07-4.515c-0.736-2.36-1.208-2.587-4.97-2.665c-1.117,1.731-2.39,3.718-3.675,5.693
			c-0.917,1.412-1.755,2.987-4.13,2.072c-0.075-0.634-0.399-1.383-0.196-1.936c3.627-9.866,7.318-19.714,11.046-29.694
			c1.959,0,3.486-0.156,4.972,0.021c11.955,1.435,25.068-8.713,25.394-22.652c0.187-8.076-3.357-14.688-9.656-19.773
			C96.833,47.132,95.716,46.309,94.201,45.145z"/>
		
			<path fill-rule="evenodd" clip-rule="evenodd" fill="#260D0F" stroke="#000000" stroke-width="2" stroke-linecap="round" stroke-linejoin="round" stroke-miterlimit="10" d="
			M107.025,21.015c-0.846,2.674-1.691,5.353-2.535,8.026"/>
	</g>
</g>
</svg>
